<svg xmlns="http://www.w3.org/2000/svg" viewBox="0 0 900 580" width="900" height="580">
  <defs>
    <linearGradient id="termBg" x1="0%" y1="0%" x2="0%" y2="100%">
      <stop offset="0%" style="stop-color:#1a1b26"/>
      <stop offset="100%" style="stop-color:#16161e"/>
    </linearGradient>
    <linearGradient id="headerBg" x1="0%" y1="0%" x2="0%" y2="100%">
      <stop offset="0%" style="stop-color:#24283b"/>
      <stop offset="100%" style="stop-color:#1f2335"/>
    </linearGradient>
    <filter id="termShadow" x="-10%" y="-10%" width="120%" height="120%">
      <feDropShadow dx="0" dy="10" stdDeviation="20" flood-color="#000" flood-opacity="0.5"/>
    </filter>
  </defs>
  
  <!-- Terminal window -->
  <rect x="20" y="20" width="860" height="540" rx="12" fill="url(#termBg)" filter="url(#termShadow)"/>
  
  <!-- Title bar -->
  <rect x="20" y="20" width="860" height="40" rx="12" fill="url(#headerBg)"/>
  <rect x="20" y="48" width="860" height="12" fill="url(#headerBg)"/>
  
  <!-- Traffic lights -->
  <circle cx="50" cy="40" r="7" fill="#ff5f56"/>
  <circle cx="75" cy="40" r="7" fill="#ffbd2e"/>
  <circle cx="100" cy="40" r="7" fill="#27c93f"/>
  
  <!-- Title -->
  <text x="450" y="45" fill="#787c99" font-family="SF Mono, Consolas, monospace" font-size="13" text-anchor="middle">chasm — Bash</text>
  
  <!-- Terminal content -->
  <g font-family="SF Mono, Consolas, Monaco, monospace" font-size="13">
    <!-- Prompt and command -->
    <text x="40" y="90" fill="#7aa2f7">❯</text>
    <text x="60" y="90" fill="#c0caf5">chasm list workspaces</text>
    
    <!-- Table header separator -->
    <text x="40" y="120" fill="#565f89">┌──────────────────┬─────────────────────────────────────────────────────┬──────────┬───────────┐</text>
    <text x="40" y="140" fill="#565f89">│</text>
    <text x="60" y="140" fill="#bb9af7">Hash</text>
    <text x="200" y="140" fill="#565f89">│</text>
    <text x="220" y="140" fill="#bb9af7">Project Path</text>
    <text x="620" y="140" fill="#565f89">│</text>
    <text x="640" y="140" fill="#bb9af7">Sessions</text>
    <text x="730" y="140" fill="#565f89">│</text>
    <text x="750" y="140" fill="#bb9af7">Has Chats</text>
    <text x="843" y="140" fill="#565f89">│</text>
    <text x="40" y="160" fill="#565f89">├──────────────────┼─────────────────────────────────────────────────────┼──────────┼───────────┤</text>
    
    <!-- Data rows -->
    <text x="40" y="180" fill="#565f89">│</text>
    <text x="60" y="180" fill="#7dcfff">91d41f3d61f1...</text>
    <text x="200" y="180" fill="#565f89">│</text>
    <text x="220" y="180" fill="#c0caf5">~/dev/my-awesome-project</text>
    <text x="620" y="180" fill="#565f89">│</text>
    <text x="660" y="180" fill="#9ece6a">12</text>
    <text x="730" y="180" fill="#565f89">│</text>
    <text x="770" y="180" fill="#9ece6a">Yes</text>
    <text x="843" y="180" fill="#565f89">│</text>
    
    <text x="40" y="200" fill="#565f89">│</text>
    <text x="60" y="200" fill="#7dcfff">a2b3c4d5e6f7...</text>
    <text x="200" y="200" fill="#565f89">│</text>
    <text x="220" y="200" fill="#c0caf5">~/dev/rust-web-api</text>
    <text x="620" y="200" fill="#565f89">│</text>
    <text x="660" y="200" fill="#9ece6a">8</text>
    <text x="730" y="200" fill="#565f89">│</text>
    <text x="770" y="200" fill="#9ece6a">Yes</text>
    <text x="843" y="200" fill="#565f89">│</text>
    
    <text x="40" y="220" fill="#565f89">│</text>
    <text x="60" y="220" fill="#7dcfff">c8d9e0f1a2b3...</text>
    <text x="200" y="220" fill="#565f89">│</text>
    <text x="220" y="220" fill="#c0caf5">~/dev/react-dashboard</text>
    <text x="620" y="220" fill="#565f89">│</text>
    <text x="660" y="220" fill="#9ece6a">5</text>
    <text x="730" y="220" fill="#565f89">│</text>
    <text x="770" y="220" fill="#9ece6a">Yes</text>
    <text x="843" y="220" fill="#565f89">│</text>
    
    <text x="40" y="240" fill="#565f89">└──────────────────┴─────────────────────────────────────────────────────┴──────────┴───────────┘</text>
    
    <!-- Second command -->
    <text x="40" y="280" fill="#7aa2f7">❯</text>
    <text x="60" y="280" fill="#c0caf5">chasm fetch path ~/dev/my-awesome-project</text>
    
    <!-- Fetch output -->
    <text x="40" y="310" fill="#7aa2f7">[&lt;]</text>
    <text x="80" y="310" fill="#c0caf5">Fetching Chat History for:</text>
    <text x="310" y="310" fill="#9ece6a">my-awesome-project</text>
    
    <text x="40" y="330" fill="#565f89">══════════════════════════════════════════════════════════════════════════════</text>
    
    <text x="40" y="355" fill="#c0caf5">Found</text>
    <text x="90" y="355" fill="#ff9e64">3</text>
    <text x="110" y="355" fill="#c0caf5">historical workspace(s)</text>
    
    <text x="60" y="385" fill="#9ece6a">[OK]</text>
    <text x="110" y="385" fill="#c0caf5">Fetched: Implementing authentication system...</text>
    <text x="520" y="385" fill="#565f89">(abc12345-...)</text>
    
    <text x="60" y="405" fill="#9ece6a">[OK]</text>
    <text x="110" y="405" fill="#c0caf5">Fetched: Debugging API endpoints...</text>
    <text x="420" y="405" fill="#565f89">(def67890-...)</text>
    
    <text x="60" y="425" fill="#9ece6a">[OK]</text>
    <text x="110" y="425" fill="#c0caf5">Fetched: Setting up CI/CD pipeline...</text>
    <text x="430" y="425" fill="#565f89">(ghi11223-...)</text>
    
    <text x="40" y="455" fill="#565f89">══════════════════════════════════════════════════════════════════════════════</text>
    
    <text x="40" y="480" fill="#bb9af7">Fetched:</text>
    <text x="120" y="480" fill="#ff9e64">3</text>
    <text x="140" y="480" fill="#c0caf5">sessions</text>
    
    <text x="40" y="510" fill="#7dcfff">[i]</text>
    <text x="70" y="510" fill="#c0caf5">Reload VS Code (Ctrl+R) and check Chat history dropdown</text>
    
    <!-- Cursor -->
    <text x="40" y="545" fill="#7aa2f7">❯</text>
    <rect x="60" y="532" width="10" height="18" fill="#7aa2f7" opacity="0.7">
      <animate attributeName="opacity" values="0.7;0;0.7" dur="1.2s" repeatCount="indefinite"/>
    </rect>
  </g>
</svg>
